<svg width="35" height="38" viewBox="0 0 35 38" fill="none" xmlns="http://www.w3.org/2000/svg">
  <path d="M27 16.586V14H25V17C25.0001 17.2652 25.1054 17.5195 25.293 17.707L28 20.414V22H6V20.414L8.707 17.707C8.89455 17.5195 8.99994 17.2652 9 17V13C8.99721 11.5948 9.3653 10.2137 10.0671 8.99632C10.7689 7.7789 11.7795 6.76823 12.9969 6.06641C14.2143 5.36458 15.5953 4.99644 17.0005 4.99918C18.4058 5.00192 19.7853 5.37543 21 6.082V3.847C20.0481 3.42552 19.0356 3.15688 18 3.051V1H16V3.05C13.5346 3.30093 11.2498 4.45712 9.58737 6.29498C7.92498 8.13285 7.0031 10.5218 7 13V16.586L4.293 19.293C4.10545 19.4805 4.00006 19.7348 4 20V23C4 23.2652 4.10536 23.5196 4.29289 23.7071C4.48043 23.8946 4.73478 24 5 24H12V25C12 26.3261 12.5268 27.5979 13.4645 28.5355C14.4021 29.4732 15.6739 30 17 30C18.3261 30 19.5979 29.4732 20.5355 28.5355C21.4732 27.5979 22 26.3261 22 25V24H29C29.2652 24 29.5196 23.8946 29.7071 23.7071C29.8946 23.5196 30 23.2652 30 23V20C29.9999 19.7348 29.8946 19.4805 29.707 19.293L27 16.586ZM20 25C20 25.7956 19.6839 26.5587 19.1213 27.1213C18.5587 27.6839 17.7956 28 17 28C16.2044 28 15.4413 27.6839 14.8787 27.1213C14.3161 26.5587 14 25.7956 14 25V24H20V25Z" fill="black"/>
  <path d="M27 12C29.2091 12 31 10.2091 31 8C31 5.79086 29.2091 4 27 4C24.7909 4 23 5.79086 23 8C23 10.2091 24.7909 12 27 12Z" fill="black"/>
</svg>
