<svg width="10" height="12" viewBox="0 0 10 12" fill="none" xmlns="http://www.w3.org/2000/svg">
<path d="M7.5402 12.0002C7.06689 12.0008 6.60782 11.8383 6.2402 11.5402L1.1402 7.33019C0.940208 7.17097 0.778696 6.9687 0.667685 6.73843C0.556674 6.50816 0.499023 6.25582 0.499023 6.00019C0.499023 5.74456 0.556674 5.49222 0.667685 5.26195C0.778696 5.03168 0.940208 4.82941 1.1402 4.67019L6.2402 0.460191C6.54723 0.214185 6.9172 0.0593773 7.30793 0.0134084C7.69867 -0.0325605 8.09446 0.0321586 8.4502 0.200191C8.75938 0.336471 9.02279 0.558864 9.20898 0.84081C9.39517 1.12276 9.49627 1.45234 9.5002 1.79019V10.2102C9.49627 10.548 9.39517 10.8776 9.20898 11.1596C9.02279 11.4415 8.75938 11.6639 8.4502 11.8002C8.16434 11.9302 7.85424 11.9983 7.5402 12.0002Z" fill="white"/>
</svg>
