<svg width="18" height="14" viewBox="0 0 18 14" fill="none" xmlns="http://www.w3.org/2000/svg">
<path d="M9.00033 13.6667C9.46056 13.6667 9.83366 13.2936 9.83366 12.8333C9.83366 12.3731 9.46056 12 9.00033 12C8.54009 12 8.16699 12.3731 8.16699 12.8333C8.16699 13.2936 8.54009 13.6667 9.00033 13.6667Z" fill="#181A18"/>
<path d="M9.00012 8.66672C7.92156 8.66669 6.88502 9.0849 6.10846 9.83339C5.94933 9.98699 5.85773 10.1975 5.85383 10.4187C5.84992 10.6398 5.93402 10.8534 6.08762 11.0126C6.24123 11.1717 6.45175 11.2633 6.67289 11.2672C6.89403 11.2711 7.10766 11.187 7.26679 11.0334C7.74004 10.6 8.35844 10.3597 9.00012 10.3597C9.6418 10.3597 10.2602 10.6 10.7335 11.0334C10.8926 11.187 11.1062 11.2711 11.3274 11.2672C11.5485 11.2633 11.759 11.1717 11.9126 11.0126C12.0662 10.8534 12.1503 10.6398 12.1464 10.4187C12.1425 10.1975 12.0509 9.98699 11.8918 9.83339C11.1152 9.0849 10.0787 8.66669 9.00012 8.66672ZM9.00012 4.50005C7.99363 4.50072 6.99757 4.70396 6.07127 5.09767C5.14498 5.49138 4.30741 6.0675 3.60846 6.79172C3.5324 6.87216 3.47293 6.96678 3.43344 7.0702C3.39396 7.17362 3.37523 7.2838 3.37832 7.39446C3.38142 7.50511 3.40628 7.61408 3.45148 7.71513C3.49669 7.81617 3.56135 7.90733 3.64179 7.98339C3.80423 8.13699 4.02105 8.21977 4.24453 8.21352C4.35518 8.21043 4.46415 8.18557 4.56519 8.14036C4.66624 8.09515 4.7574 8.03049 4.83346 7.95005C5.37761 7.38549 6.03 6.93643 6.75164 6.62971C7.47327 6.32299 8.24934 6.1649 9.03346 6.1649C9.81757 6.1649 10.5936 6.32299 11.3153 6.62971C12.0369 6.93643 12.6893 7.38549 13.2335 7.95005C13.3106 8.02879 13.4027 8.09144 13.5042 8.13435C13.6058 8.17726 13.7149 8.1996 13.8251 8.20005C13.988 8.19943 14.1471 8.15111 14.2828 8.06106C14.4185 7.97101 14.5248 7.84317 14.5886 7.69335C14.6524 7.54353 14.671 7.37829 14.6419 7.21805C14.6129 7.05781 14.5375 6.90959 14.4251 6.79172C13.7223 6.06345 12.8793 5.48498 11.947 5.09114C11.0146 4.69729 10.0122 4.49623 9.00012 4.50005Z" fill="#181A18"/>
<path d="M17.1002 3.60855C14.9256 1.5107 12.0218 0.338379 9.00024 0.338379C5.97863 0.338379 3.07488 1.5107 0.900237 3.60855C0.759602 3.76493 0.683296 3.9687 0.686628 4.17899C0.68996 4.38928 0.772682 4.59053 0.9182 4.74238C1.06372 4.89422 1.26127 4.98543 1.47123 4.9977C1.68118 5.00998 1.88802 4.94241 2.05024 4.80855C3.9149 3.00615 6.40686 1.99865 9.00024 1.99865C11.5936 1.99865 14.0856 3.00615 15.9502 4.80855C16.1047 4.95745 16.3107 5.04103 16.5252 5.04188C16.6375 5.04146 16.7485 5.01835 16.8516 4.97396C16.9547 4.92957 17.0478 4.8648 17.1252 4.78355C17.2772 4.62414 17.3598 4.41106 17.3551 4.19089C17.3505 3.97072 17.2588 3.76136 17.1002 3.60855Z" fill="#181A18"/>
</svg>
